<mxfile host="app.diagrams.net" modified="2020-10-31T03:16:05.721Z" agent="5.0 (Windows)" etag="kAxQLDrEzjvNTokcpvtJ" version="13.8.8" type="github">
  <diagram id="C5RBs43oDa-KdzZeNtuy" name="Page-1">
    <mxGraphModel dx="1912" dy="1154" grid="1" gridSize="10" guides="1" tooltips="1" connect="1" arrows="1" fold="1" page="0" pageScale="1" pageWidth="827" pageHeight="1169" background="#0F0F0F" math="0" shadow="0">
      <root>
        <mxCell id="WIyWlLk6GJQsqaUBKTNV-0" />
        <mxCell id="WIyWlLk6GJQsqaUBKTNV-1" parent="WIyWlLk6GJQsqaUBKTNV-0" />
        <mxCell id="4suyXwy1Kpgt21TEIe-z-75" style="edgeStyle=orthogonalEdgeStyle;rounded=0;orthogonalLoop=1;jettySize=auto;html=1;exitX=0.5;exitY=1;exitDx=0;exitDy=0;exitPerimeter=0;entryX=0;entryY=0.5;entryDx=0;entryDy=0;" parent="WIyWlLk6GJQsqaUBKTNV-1" source="4suyXwy1Kpgt21TEIe-z-7" target="4suyXwy1Kpgt21TEIe-z-31" edge="1">
          <mxGeometry relative="1" as="geometry" />
        </mxCell>
        <mxCell id="4suyXwy1Kpgt21TEIe-z-7" value="&lt;div&gt;model&lt;/div&gt;" style="shape=folder;fontStyle=1;spacingTop=10;tabWidth=40;tabHeight=14;tabPosition=left;html=1;" parent="WIyWlLk6GJQsqaUBKTNV-1" vertex="1">
          <mxGeometry x="20" y="10" width="70" height="50" as="geometry" />
        </mxCell>
        <mxCell id="pEVWOKsxLj1dPR-0CNbp-117" style="edgeStyle=orthogonalEdgeStyle;rounded=0;orthogonalLoop=1;jettySize=auto;html=1;exitX=0.5;exitY=1;exitDx=0;exitDy=0;exitPerimeter=0;entryX=0;entryY=0.25;entryDx=0;entryDy=0;" parent="WIyWlLk6GJQsqaUBKTNV-1" source="4suyXwy1Kpgt21TEIe-z-10" target="pEVWOKsxLj1dPR-0CNbp-111" edge="1">
          <mxGeometry relative="1" as="geometry" />
        </mxCell>
        <mxCell id="4suyXwy1Kpgt21TEIe-z-10" value="&lt;div&gt;view&lt;/div&gt;" style="shape=folder;fontStyle=1;spacingTop=10;tabWidth=40;tabHeight=14;tabPosition=left;html=1;" parent="WIyWlLk6GJQsqaUBKTNV-1" vertex="1">
          <mxGeometry x="-880" y="20" width="70" height="50" as="geometry" />
        </mxCell>
        <mxCell id="pEVWOKsxLj1dPR-0CNbp-110" style="edgeStyle=orthogonalEdgeStyle;rounded=0;orthogonalLoop=1;jettySize=auto;html=1;exitX=0.5;exitY=1;exitDx=0;exitDy=0;exitPerimeter=0;entryX=0;entryY=0.25;entryDx=0;entryDy=0;" parent="WIyWlLk6GJQsqaUBKTNV-1" source="4suyXwy1Kpgt21TEIe-z-11" target="pEVWOKsxLj1dPR-0CNbp-78" edge="1">
          <mxGeometry relative="1" as="geometry" />
        </mxCell>
        <mxCell id="4suyXwy1Kpgt21TEIe-z-11" value="controller" style="shape=folder;fontStyle=1;spacingTop=10;tabWidth=40;tabHeight=14;tabPosition=left;html=1;" parent="WIyWlLk6GJQsqaUBKTNV-1" vertex="1">
          <mxGeometry x="-630" y="20" width="70" height="50" as="geometry" />
        </mxCell>
        <mxCell id="4suyXwy1Kpgt21TEIe-z-28" value="Number" style="swimlane;fontStyle=3;align=center;verticalAlign=top;childLayout=stackLayout;horizontal=1;startSize=26;horizontalStack=0;resizeParent=1;resizeParentMax=0;resizeLast=0;collapsible=1;marginBottom=0;strokeColor=#FFFFFF;" parent="WIyWlLk6GJQsqaUBKTNV-1" vertex="1">
          <mxGeometry x="110" y="20" width="200" height="200" as="geometry" />
        </mxCell>
        <mxCell id="4suyXwy1Kpgt21TEIe-z-29" value="- value: String&#xa;- base: int&#xa;" style="text;strokeColor=none;fillColor=none;align=left;verticalAlign=top;spacingLeft=4;spacingRight=4;overflow=hidden;rotatable=0;points=[[0,0.5],[1,0.5]];portConstraint=eastwest;" parent="4suyXwy1Kpgt21TEIe-z-28" vertex="1">
          <mxGeometry y="26" width="200" height="34" as="geometry" />
        </mxCell>
        <mxCell id="4suyXwy1Kpgt21TEIe-z-30" value="" style="line;strokeWidth=1;fillColor=none;align=left;verticalAlign=middle;spacingTop=-1;spacingLeft=3;spacingRight=3;rotatable=0;labelPosition=right;points=[];portConstraint=eastwest;" parent="4suyXwy1Kpgt21TEIe-z-28" vertex="1">
          <mxGeometry y="60" width="200" height="8" as="geometry" />
        </mxCell>
        <mxCell id="4suyXwy1Kpgt21TEIe-z-31" value="+ Number(value: String, base: int)&#xa;&#xa;" style="text;strokeColor=none;fillColor=none;align=left;verticalAlign=top;spacingLeft=4;spacingRight=4;overflow=hidden;rotatable=0;points=[[0,0.5],[1,0.5]];portConstraint=eastwest;fontStyle=0" parent="4suyXwy1Kpgt21TEIe-z-28" vertex="1">
          <mxGeometry y="68" width="200" height="22" as="geometry" />
        </mxCell>
        <mxCell id="4suyXwy1Kpgt21TEIe-z-43" value="+ setNum(num: String): void&#xa;&#xa;" style="text;strokeColor=none;fillColor=none;align=left;verticalAlign=top;spacingLeft=4;spacingRight=4;overflow=hidden;rotatable=0;points=[[0,0.5],[1,0.5]];portConstraint=eastwest;fontStyle=0" parent="4suyXwy1Kpgt21TEIe-z-28" vertex="1">
          <mxGeometry y="90" width="200" height="20" as="geometry" />
        </mxCell>
        <mxCell id="4suyXwy1Kpgt21TEIe-z-42" value="+ getNum(): String&#xa;&#xa;" style="text;strokeColor=none;fillColor=none;align=left;verticalAlign=top;spacingLeft=4;spacingRight=4;overflow=hidden;rotatable=0;points=[[0,0.5],[1,0.5]];portConstraint=eastwest;fontStyle=0" parent="4suyXwy1Kpgt21TEIe-z-28" vertex="1">
          <mxGeometry y="110" width="200" height="20" as="geometry" />
        </mxCell>
        <mxCell id="4suyXwy1Kpgt21TEIe-z-44" value="+ toString(): void&#xa;" style="text;strokeColor=none;fillColor=none;align=left;verticalAlign=top;spacingLeft=4;spacingRight=4;overflow=hidden;rotatable=0;points=[[0,0.5],[1,0.5]];portConstraint=eastwest;fontStyle=0" parent="4suyXwy1Kpgt21TEIe-z-28" vertex="1">
          <mxGeometry y="130" width="200" height="20" as="geometry" />
        </mxCell>
        <mxCell id="4suyXwy1Kpgt21TEIe-z-45" value="+ equals(oNum: Number): boolean&#xa;" style="text;strokeColor=none;fillColor=none;align=left;verticalAlign=top;spacingLeft=4;spacingRight=4;overflow=hidden;rotatable=0;points=[[0,0.5],[1,0.5]];portConstraint=eastwest;fontStyle=0" parent="4suyXwy1Kpgt21TEIe-z-28" vertex="1">
          <mxGeometry y="150" width="200" height="20" as="geometry" />
        </mxCell>
        <mxCell id="4suyXwy1Kpgt21TEIe-z-46" value="+ compareTo(oNum: String): int" style="text;strokeColor=none;fillColor=none;align=left;verticalAlign=top;spacingLeft=4;spacingRight=4;overflow=hidden;rotatable=0;points=[[0,0.5],[1,0.5]];portConstraint=eastwest;fontStyle=2" parent="4suyXwy1Kpgt21TEIe-z-28" vertex="1">
          <mxGeometry y="170" width="200" height="30" as="geometry" />
        </mxCell>
        <mxCell id="4suyXwy1Kpgt21TEIe-z-38" value="Binary" style="swimlane;fontStyle=1;align=center;verticalAlign=top;childLayout=stackLayout;horizontal=1;startSize=26;horizontalStack=0;resizeParent=1;resizeParentMax=0;resizeLast=0;collapsible=1;marginBottom=0;strokeColor=#FFFFFF;" parent="WIyWlLk6GJQsqaUBKTNV-1" vertex="1">
          <mxGeometry x="370" y="20" width="180" height="100" as="geometry" />
        </mxCell>
        <mxCell id="4suyXwy1Kpgt21TEIe-z-65" value="- base: int {readOnly}" style="text;strokeColor=none;fillColor=none;align=left;verticalAlign=top;spacingLeft=4;spacingRight=4;overflow=hidden;rotatable=0;points=[[0,0.5],[1,0.5]];portConstraint=eastwest;" parent="4suyXwy1Kpgt21TEIe-z-38" vertex="1">
          <mxGeometry y="26" width="180" height="24" as="geometry" />
        </mxCell>
        <mxCell id="4suyXwy1Kpgt21TEIe-z-40" value="" style="line;strokeWidth=1;fillColor=none;align=left;verticalAlign=middle;spacingTop=-1;spacingLeft=3;spacingRight=3;rotatable=0;labelPosition=right;points=[];portConstraint=eastwest;" parent="4suyXwy1Kpgt21TEIe-z-38" vertex="1">
          <mxGeometry y="50" width="180" height="10" as="geometry" />
        </mxCell>
        <mxCell id="4suyXwy1Kpgt21TEIe-z-41" value="+ Binary(value: String)&#xa;+ compareTo(oNum: String): int" style="text;strokeColor=none;fillColor=none;align=left;verticalAlign=top;spacingLeft=4;spacingRight=4;overflow=hidden;rotatable=0;points=[[0,0.5],[1,0.5]];portConstraint=eastwest;" parent="4suyXwy1Kpgt21TEIe-z-38" vertex="1">
          <mxGeometry y="60" width="180" height="40" as="geometry" />
        </mxCell>
        <mxCell id="4suyXwy1Kpgt21TEIe-z-66" value="Hex" style="swimlane;fontStyle=1;align=center;verticalAlign=top;childLayout=stackLayout;horizontal=1;startSize=26;horizontalStack=0;resizeParent=1;resizeParentMax=0;resizeLast=0;collapsible=1;marginBottom=0;strokeColor=#FCFCFC;" parent="WIyWlLk6GJQsqaUBKTNV-1" vertex="1">
          <mxGeometry x="370" y="140" width="180" height="100" as="geometry" />
        </mxCell>
        <mxCell id="4suyXwy1Kpgt21TEIe-z-67" value="- base: int {readOnly}" style="text;fillColor=none;align=left;verticalAlign=top;spacingLeft=4;spacingRight=4;overflow=hidden;rotatable=0;points=[[0,0.5],[1,0.5]];portConstraint=eastwest;" parent="4suyXwy1Kpgt21TEIe-z-66" vertex="1">
          <mxGeometry y="26" width="180" height="24" as="geometry" />
        </mxCell>
        <mxCell id="4suyXwy1Kpgt21TEIe-z-68" value="" style="line;strokeWidth=1;fillColor=none;align=left;verticalAlign=middle;spacingTop=-1;spacingLeft=3;spacingRight=3;rotatable=0;labelPosition=right;points=[];portConstraint=eastwest;" parent="4suyXwy1Kpgt21TEIe-z-66" vertex="1">
          <mxGeometry y="50" width="180" height="10" as="geometry" />
        </mxCell>
        <mxCell id="4suyXwy1Kpgt21TEIe-z-69" value="+ Hex(value: String)&#xa;+ compareTo(oNum: String): int" style="text;strokeColor=none;fillColor=none;align=left;verticalAlign=top;spacingLeft=4;spacingRight=4;overflow=hidden;rotatable=0;points=[[0,0.5],[1,0.5]];portConstraint=eastwest;" parent="4suyXwy1Kpgt21TEIe-z-66" vertex="1">
          <mxGeometry y="60" width="180" height="40" as="geometry" />
        </mxCell>
        <mxCell id="4suyXwy1Kpgt21TEIe-z-70" value="Decimal" style="swimlane;fontStyle=1;align=center;verticalAlign=top;childLayout=stackLayout;horizontal=1;startSize=26;horizontalStack=0;resizeParent=1;resizeParentMax=0;resizeLast=0;collapsible=1;marginBottom=0;strokeColor=#FFFFFF;" parent="WIyWlLk6GJQsqaUBKTNV-1" vertex="1">
          <mxGeometry x="370" y="260" width="180" height="100" as="geometry" />
        </mxCell>
        <mxCell id="4suyXwy1Kpgt21TEIe-z-71" value="- base: int {readOnly}" style="text;fillColor=none;align=left;verticalAlign=top;spacingLeft=4;spacingRight=4;overflow=hidden;rotatable=0;points=[[0,0.5],[1,0.5]];portConstraint=eastwest;" parent="4suyXwy1Kpgt21TEIe-z-70" vertex="1">
          <mxGeometry y="26" width="180" height="24" as="geometry" />
        </mxCell>
        <mxCell id="4suyXwy1Kpgt21TEIe-z-72" value="" style="line;strokeWidth=1;fillColor=none;align=left;verticalAlign=middle;spacingTop=-1;spacingLeft=3;spacingRight=3;rotatable=0;labelPosition=right;points=[];portConstraint=eastwest;" parent="4suyXwy1Kpgt21TEIe-z-70" vertex="1">
          <mxGeometry y="50" width="180" height="10" as="geometry" />
        </mxCell>
        <mxCell id="4suyXwy1Kpgt21TEIe-z-73" value="+ Decimal(value: String)&#xa;+ compareTo(oNum: String): int" style="text;strokeColor=none;fillColor=none;align=left;verticalAlign=top;spacingLeft=4;spacingRight=4;overflow=hidden;rotatable=0;points=[[0,0.5],[1,0.5]];portConstraint=eastwest;" parent="4suyXwy1Kpgt21TEIe-z-70" vertex="1">
          <mxGeometry y="60" width="180" height="40" as="geometry" />
        </mxCell>
        <mxCell id="4suyXwy1Kpgt21TEIe-z-78" value="" style="endArrow=classic;html=1;exitX=0;exitY=0;exitDx=0;exitDy=0;entryX=1.004;entryY=1.039;entryDx=0;entryDy=0;entryPerimeter=0;" parent="WIyWlLk6GJQsqaUBKTNV-1" source="4suyXwy1Kpgt21TEIe-z-38" target="4suyXwy1Kpgt21TEIe-z-29" edge="1">
          <mxGeometry width="50" height="50" relative="1" as="geometry">
            <mxPoint x="390" y="250" as="sourcePoint" />
            <mxPoint x="440" y="200" as="targetPoint" />
          </mxGeometry>
        </mxCell>
        <mxCell id="4suyXwy1Kpgt21TEIe-z-79" value="" style="endArrow=classic;html=1;exitX=0;exitY=0;exitDx=0;exitDy=0;entryX=1;entryY=0.5;entryDx=0;entryDy=0;" parent="WIyWlLk6GJQsqaUBKTNV-1" source="4suyXwy1Kpgt21TEIe-z-66" target="4suyXwy1Kpgt21TEIe-z-31" edge="1">
          <mxGeometry width="50" height="50" relative="1" as="geometry">
            <mxPoint x="420" y="-30" as="sourcePoint" />
            <mxPoint x="321.60000000000014" y="138.84000000000003" as="targetPoint" />
          </mxGeometry>
        </mxCell>
        <mxCell id="4suyXwy1Kpgt21TEIe-z-80" value="" style="endArrow=classic;html=1;exitX=0;exitY=0;exitDx=0;exitDy=0;entryX=1;entryY=0.5;entryDx=0;entryDy=0;" parent="WIyWlLk6GJQsqaUBKTNV-1" source="4suyXwy1Kpgt21TEIe-z-70" target="4suyXwy1Kpgt21TEIe-z-43" edge="1">
          <mxGeometry width="50" height="50" relative="1" as="geometry">
            <mxPoint x="420.0000000000002" y="90" as="sourcePoint" />
            <mxPoint x="350" y="190" as="targetPoint" />
          </mxGeometry>
        </mxCell>
        <mxCell id="4suyXwy1Kpgt21TEIe-z-82" value="Unit" style="swimlane;fontStyle=3;align=center;verticalAlign=top;childLayout=stackLayout;horizontal=1;startSize=26;horizontalStack=0;resizeParent=1;resizeParentMax=0;resizeLast=0;collapsible=1;marginBottom=0;strokeColor=#FFFFFF;" parent="WIyWlLk6GJQsqaUBKTNV-1" vertex="1">
          <mxGeometry x="110" y="365" width="200" height="130" as="geometry" />
        </mxCell>
        <mxCell id="4suyXwy1Kpgt21TEIe-z-83" value="- unit : String" style="text;strokeColor=none;fillColor=none;align=left;verticalAlign=top;spacingLeft=4;spacingRight=4;overflow=hidden;rotatable=0;points=[[0,0.5],[1,0.5]];portConstraint=eastwest;" parent="4suyXwy1Kpgt21TEIe-z-82" vertex="1">
          <mxGeometry y="26" width="200" height="14" as="geometry" />
        </mxCell>
        <mxCell id="UFR7qFMbcUXyXf43g2VY-0" value="- value : Decimal" style="text;strokeColor=none;fillColor=none;align=left;verticalAlign=top;spacingLeft=4;spacingRight=4;overflow=hidden;rotatable=0;points=[[0,0.5],[1,0.5]];portConstraint=eastwest;" parent="4suyXwy1Kpgt21TEIe-z-82" vertex="1">
          <mxGeometry y="40" width="200" height="30" as="geometry" />
        </mxCell>
        <mxCell id="4suyXwy1Kpgt21TEIe-z-84" value="" style="line;strokeWidth=1;fillColor=none;align=left;verticalAlign=middle;spacingTop=-1;spacingLeft=3;spacingRight=3;rotatable=0;labelPosition=right;points=[];portConstraint=eastwest;" parent="4suyXwy1Kpgt21TEIe-z-82" vertex="1">
          <mxGeometry y="70" width="200" height="8" as="geometry" />
        </mxCell>
        <mxCell id="4suyXwy1Kpgt21TEIe-z-85" value="+ Unit(value: Decimal, unit: String)&#xa;&#xa;" style="text;strokeColor=none;fillColor=none;align=left;verticalAlign=top;spacingLeft=4;spacingRight=4;overflow=hidden;rotatable=0;points=[[0,0.5],[1,0.5]];portConstraint=eastwest;fontStyle=0" parent="4suyXwy1Kpgt21TEIe-z-82" vertex="1">
          <mxGeometry y="78" width="200" height="22" as="geometry" />
        </mxCell>
        <mxCell id="4suyXwy1Kpgt21TEIe-z-88" value="+ toString(): void&#xa;" style="text;strokeColor=none;fillColor=none;align=left;verticalAlign=top;spacingLeft=4;spacingRight=4;overflow=hidden;rotatable=0;points=[[0,0.5],[1,0.5]];portConstraint=eastwest;fontStyle=0" parent="4suyXwy1Kpgt21TEIe-z-82" vertex="1">
          <mxGeometry y="100" width="200" height="30" as="geometry" />
        </mxCell>
        <mxCell id="4suyXwy1Kpgt21TEIe-z-91" value="SizeUnit" style="swimlane;fontStyle=1;align=center;verticalAlign=top;childLayout=stackLayout;horizontal=1;startSize=26;horizontalStack=0;resizeParent=1;resizeParentMax=0;resizeLast=0;collapsible=1;marginBottom=0;strokeColor=#000000;" parent="WIyWlLk6GJQsqaUBKTNV-1" vertex="1">
          <mxGeometry x="370" y="380" width="180" height="100" as="geometry" />
        </mxCell>
        <mxCell id="4suyXwy1Kpgt21TEIe-z-92" value="- field: type{s}" style="text;strokeColor=none;fillColor=none;align=left;verticalAlign=top;spacingLeft=4;spacingRight=4;overflow=hidden;rotatable=0;points=[[0,0.5],[1,0.5]];portConstraint=eastwest;" parent="4suyXwy1Kpgt21TEIe-z-91" vertex="1">
          <mxGeometry y="26" width="180" height="24" as="geometry" />
        </mxCell>
        <mxCell id="4suyXwy1Kpgt21TEIe-z-93" value="" style="line;strokeWidth=1;fillColor=none;align=left;verticalAlign=middle;spacingTop=-1;spacingLeft=3;spacingRight=3;rotatable=0;labelPosition=right;points=[];portConstraint=eastwest;" parent="4suyXwy1Kpgt21TEIe-z-91" vertex="1">
          <mxGeometry y="50" width="180" height="10" as="geometry" />
        </mxCell>
        <mxCell id="4suyXwy1Kpgt21TEIe-z-94" value="+ SizeUnit(field: type)&#xa;+ method(oNum: String): int" style="text;strokeColor=none;fillColor=none;align=left;verticalAlign=top;spacingLeft=4;spacingRight=4;overflow=hidden;rotatable=0;points=[[0,0.5],[1,0.5]];portConstraint=eastwest;" parent="4suyXwy1Kpgt21TEIe-z-91" vertex="1">
          <mxGeometry y="60" width="180" height="40" as="geometry" />
        </mxCell>
        <mxCell id="4suyXwy1Kpgt21TEIe-z-103" value="" style="endArrow=classic;html=1;exitX=0;exitY=0;exitDx=0;exitDy=0;entryX=1.004;entryY=1.039;entryDx=0;entryDy=0;entryPerimeter=0;" parent="WIyWlLk6GJQsqaUBKTNV-1" source="4suyXwy1Kpgt21TEIe-z-91" target="4suyXwy1Kpgt21TEIe-z-83" edge="1">
          <mxGeometry width="50" height="50" relative="1" as="geometry">
            <mxPoint x="390" y="630" as="sourcePoint" />
            <mxPoint x="440" y="580" as="targetPoint" />
          </mxGeometry>
        </mxCell>
        <mxCell id="4suyXwy1Kpgt21TEIe-z-104" value="" style="endArrow=classic;html=1;exitX=0;exitY=0;exitDx=0;exitDy=0;entryX=1;entryY=0.5;entryDx=0;entryDy=0;" parent="WIyWlLk6GJQsqaUBKTNV-1" source="UFR7qFMbcUXyXf43g2VY-5" target="4suyXwy1Kpgt21TEIe-z-82" edge="1">
          <mxGeometry width="50" height="50" relative="1" as="geometry">
            <mxPoint x="370" y="500" as="sourcePoint" />
            <mxPoint x="321.60000000000014" y="518.84" as="targetPoint" />
          </mxGeometry>
        </mxCell>
        <mxCell id="4suyXwy1Kpgt21TEIe-z-105" value="" style="endArrow=classic;html=1;exitX=0;exitY=0;exitDx=0;exitDy=0;entryX=1;entryY=0.5;entryDx=0;entryDy=0;" parent="WIyWlLk6GJQsqaUBKTNV-1" source="UFR7qFMbcUXyXf43g2VY-9" target="4suyXwy1Kpgt21TEIe-z-88" edge="1">
          <mxGeometry width="50" height="50" relative="1" as="geometry">
            <mxPoint x="370" y="620" as="sourcePoint" />
            <mxPoint x="260" y="510" as="targetPoint" />
          </mxGeometry>
        </mxCell>
        <mxCell id="4suyXwy1Kpgt21TEIe-z-109" value="" style="endArrow=diamondThin;endFill=1;endSize=24;html=1;exitX=-0.005;exitY=0.105;exitDx=0;exitDy=0;entryX=0.5;entryY=0;entryDx=0;entryDy=0;exitPerimeter=0;" parent="WIyWlLk6GJQsqaUBKTNV-1" source="4suyXwy1Kpgt21TEIe-z-70" target="4suyXwy1Kpgt21TEIe-z-82" edge="1">
          <mxGeometry width="160" relative="1" as="geometry">
            <mxPoint x="140" y="260" as="sourcePoint" />
            <mxPoint x="300" y="260" as="targetPoint" />
            <Array as="points">
              <mxPoint x="210" y="270" />
            </Array>
          </mxGeometry>
        </mxCell>
        <mxCell id="UFR7qFMbcUXyXf43g2VY-1" value="SizeUnit" style="swimlane;fontStyle=1;align=center;verticalAlign=top;childLayout=stackLayout;horizontal=1;startSize=26;horizontalStack=0;resizeParent=1;resizeParentMax=0;resizeLast=0;collapsible=1;marginBottom=0;strokeColor=#FFFFFF;" parent="WIyWlLk6GJQsqaUBKTNV-1" vertex="1">
          <mxGeometry x="370" y="380" width="180" height="100" as="geometry" />
        </mxCell>
        <mxCell id="UFR7qFMbcUXyXf43g2VY-2" value="- field: type{s}" style="text;strokeColor=none;fillColor=none;align=left;verticalAlign=top;spacingLeft=4;spacingRight=4;overflow=hidden;rotatable=0;points=[[0,0.5],[1,0.5]];portConstraint=eastwest;" parent="UFR7qFMbcUXyXf43g2VY-1" vertex="1">
          <mxGeometry y="26" width="180" height="24" as="geometry" />
        </mxCell>
        <mxCell id="UFR7qFMbcUXyXf43g2VY-3" value="" style="line;strokeWidth=1;fillColor=none;align=left;verticalAlign=middle;spacingTop=-1;spacingLeft=3;spacingRight=3;rotatable=0;labelPosition=right;points=[];portConstraint=eastwest;" parent="UFR7qFMbcUXyXf43g2VY-1" vertex="1">
          <mxGeometry y="50" width="180" height="10" as="geometry" />
        </mxCell>
        <mxCell id="UFR7qFMbcUXyXf43g2VY-4" value="+ SizeUnit(field: type)&#xa;+ method(oNum: String): int" style="text;strokeColor=none;fillColor=none;align=left;verticalAlign=top;spacingLeft=4;spacingRight=4;overflow=hidden;rotatable=0;points=[[0,0.5],[1,0.5]];portConstraint=eastwest;" parent="UFR7qFMbcUXyXf43g2VY-1" vertex="1">
          <mxGeometry y="60" width="180" height="40" as="geometry" />
        </mxCell>
        <mxCell id="UFR7qFMbcUXyXf43g2VY-5" value="RateUnit" style="swimlane;fontStyle=1;align=center;verticalAlign=top;childLayout=stackLayout;horizontal=1;startSize=26;horizontalStack=0;resizeParent=1;resizeParentMax=0;resizeLast=0;collapsible=1;marginBottom=0;strokeColor=#FFFFFF;" parent="WIyWlLk6GJQsqaUBKTNV-1" vertex="1">
          <mxGeometry x="370" y="500" width="180" height="100" as="geometry" />
        </mxCell>
        <mxCell id="UFR7qFMbcUXyXf43g2VY-6" value="- field: type{s}" style="text;strokeColor=none;fillColor=none;align=left;verticalAlign=top;spacingLeft=4;spacingRight=4;overflow=hidden;rotatable=0;points=[[0,0.5],[1,0.5]];portConstraint=eastwest;" parent="UFR7qFMbcUXyXf43g2VY-5" vertex="1">
          <mxGeometry y="26" width="180" height="24" as="geometry" />
        </mxCell>
        <mxCell id="UFR7qFMbcUXyXf43g2VY-7" value="" style="line;strokeWidth=1;fillColor=none;align=left;verticalAlign=middle;spacingTop=-1;spacingLeft=3;spacingRight=3;rotatable=0;labelPosition=right;points=[];portConstraint=eastwest;" parent="UFR7qFMbcUXyXf43g2VY-5" vertex="1">
          <mxGeometry y="50" width="180" height="10" as="geometry" />
        </mxCell>
        <mxCell id="UFR7qFMbcUXyXf43g2VY-8" value="+ SizeUnit(field: type)&#xa;+ method(oNum: String): int" style="text;strokeColor=none;fillColor=none;align=left;verticalAlign=top;spacingLeft=4;spacingRight=4;overflow=hidden;rotatable=0;points=[[0,0.5],[1,0.5]];portConstraint=eastwest;" parent="UFR7qFMbcUXyXf43g2VY-5" vertex="1">
          <mxGeometry y="60" width="180" height="40" as="geometry" />
        </mxCell>
        <mxCell id="UFR7qFMbcUXyXf43g2VY-9" value="TimeUnit" style="swimlane;fontStyle=1;align=center;verticalAlign=top;childLayout=stackLayout;horizontal=1;startSize=26;horizontalStack=0;resizeParent=1;resizeParentMax=0;resizeLast=0;collapsible=1;marginBottom=0;strokeColor=#FFFFFF;" parent="WIyWlLk6GJQsqaUBKTNV-1" vertex="1">
          <mxGeometry x="370" y="620" width="180" height="100" as="geometry" />
        </mxCell>
        <mxCell id="UFR7qFMbcUXyXf43g2VY-10" value="- field: type{s}" style="text;strokeColor=none;fillColor=none;align=left;verticalAlign=top;spacingLeft=4;spacingRight=4;overflow=hidden;rotatable=0;points=[[0,0.5],[1,0.5]];portConstraint=eastwest;" parent="UFR7qFMbcUXyXf43g2VY-9" vertex="1">
          <mxGeometry y="26" width="180" height="24" as="geometry" />
        </mxCell>
        <mxCell id="UFR7qFMbcUXyXf43g2VY-11" value="" style="line;strokeWidth=1;fillColor=none;align=left;verticalAlign=middle;spacingTop=-1;spacingLeft=3;spacingRight=3;rotatable=0;labelPosition=right;points=[];portConstraint=eastwest;" parent="UFR7qFMbcUXyXf43g2VY-9" vertex="1">
          <mxGeometry y="50" width="180" height="10" as="geometry" />
        </mxCell>
        <mxCell id="UFR7qFMbcUXyXf43g2VY-12" value="+ SizeUnit(field: type)&#xa;+ method(oNum: String): int" style="text;strokeColor=none;fillColor=none;align=left;verticalAlign=top;spacingLeft=4;spacingRight=4;overflow=hidden;rotatable=0;points=[[0,0.5],[1,0.5]];portConstraint=eastwest;" parent="UFR7qFMbcUXyXf43g2VY-9" vertex="1">
          <mxGeometry y="60" width="180" height="40" as="geometry" />
        </mxCell>
        <mxCell id="UFR7qFMbcUXyXf43g2VY-27" value="&lt;&lt;Enum&gt;&gt;&#xa;Size&#xa;&#xa;&#xa;" style="swimlane;fontStyle=1;align=center;verticalAlign=top;childLayout=stackLayout;horizontal=1;startSize=40;horizontalStack=0;resizeParent=1;resizeParentMax=0;resizeLast=0;collapsible=1;marginBottom=0;" parent="WIyWlLk6GJQsqaUBKTNV-1" vertex="1">
          <mxGeometry x="630" y="250" width="170" height="360" as="geometry" />
        </mxCell>
        <mxCell id="UFR7qFMbcUXyXf43g2VY-32" value="+ inBits: long{constant}" style="text;strokeColor=none;fillColor=none;align=left;verticalAlign=top;spacingLeft=4;spacingRight=4;overflow=hidden;rotatable=0;points=[[0,0.5],[1,0.5]];portConstraint=eastwest;" parent="UFR7qFMbcUXyXf43g2VY-27" vertex="1">
          <mxGeometry y="40" width="170" height="26" as="geometry" />
        </mxCell>
        <mxCell id="UFR7qFMbcUXyXf43g2VY-33" value="BITS(1)" style="text;strokeColor=none;fillColor=none;align=left;verticalAlign=top;spacingLeft=4;spacingRight=4;overflow=hidden;rotatable=0;points=[[0,0.5],[1,0.5]];portConstraint=eastwest;" parent="UFR7qFMbcUXyXf43g2VY-27" vertex="1">
          <mxGeometry y="66" width="170" height="26" as="geometry" />
        </mxCell>
        <mxCell id="UFR7qFMbcUXyXf43g2VY-34" value="KILOBITS(1000)" style="text;strokeColor=none;fillColor=none;align=left;verticalAlign=top;spacingLeft=4;spacingRight=4;overflow=hidden;rotatable=0;points=[[0,0.5],[1,0.5]];portConstraint=eastwest;" parent="UFR7qFMbcUXyXf43g2VY-27" vertex="1">
          <mxGeometry y="92" width="170" height="26" as="geometry" />
        </mxCell>
        <mxCell id="UFR7qFMbcUXyXf43g2VY-35" value="MEGABITS(1000000)" style="text;strokeColor=none;fillColor=none;align=left;verticalAlign=top;spacingLeft=4;spacingRight=4;overflow=hidden;rotatable=0;points=[[0,0.5],[1,0.5]];portConstraint=eastwest;" parent="UFR7qFMbcUXyXf43g2VY-27" vertex="1">
          <mxGeometry y="118" width="170" height="26" as="geometry" />
        </mxCell>
        <mxCell id="UFR7qFMbcUXyXf43g2VY-31" value="GIGABITS(1000000000)" style="text;strokeColor=none;fillColor=none;align=left;verticalAlign=top;spacingLeft=4;spacingRight=4;overflow=hidden;rotatable=0;points=[[0,0.5],[1,0.5]];portConstraint=eastwest;" parent="UFR7qFMbcUXyXf43g2VY-27" vertex="1">
          <mxGeometry y="144" width="170" height="26" as="geometry" />
        </mxCell>
        <mxCell id="UFR7qFMbcUXyXf43g2VY-28" value="TERABITS(1000000000000)" style="text;strokeColor=none;fillColor=none;align=left;verticalAlign=top;spacingLeft=4;spacingRight=4;overflow=hidden;rotatable=0;points=[[0,0.5],[1,0.5]];portConstraint=eastwest;" parent="UFR7qFMbcUXyXf43g2VY-27" vertex="1">
          <mxGeometry y="170" width="170" height="26" as="geometry" />
        </mxCell>
        <mxCell id="UFR7qFMbcUXyXf43g2VY-36" value="BYTES(8)" style="text;strokeColor=none;fillColor=none;align=left;verticalAlign=top;spacingLeft=4;spacingRight=4;overflow=hidden;rotatable=0;points=[[0,0.5],[1,0.5]];portConstraint=eastwest;" parent="UFR7qFMbcUXyXf43g2VY-27" vertex="1">
          <mxGeometry y="196" width="170" height="26" as="geometry" />
        </mxCell>
        <mxCell id="UFR7qFMbcUXyXf43g2VY-39" value="KILOBYTES(8000)" style="text;strokeColor=none;fillColor=none;align=left;verticalAlign=top;spacingLeft=4;spacingRight=4;overflow=hidden;rotatable=0;points=[[0,0.5],[1,0.5]];portConstraint=eastwest;" parent="UFR7qFMbcUXyXf43g2VY-27" vertex="1">
          <mxGeometry y="222" width="170" height="26" as="geometry" />
        </mxCell>
        <mxCell id="UFR7qFMbcUXyXf43g2VY-38" value="MEGABYTES(8000000)" style="text;strokeColor=none;fillColor=none;align=left;verticalAlign=top;spacingLeft=4;spacingRight=4;overflow=hidden;rotatable=0;points=[[0,0.5],[1,0.5]];portConstraint=eastwest;" parent="UFR7qFMbcUXyXf43g2VY-27" vertex="1">
          <mxGeometry y="248" width="170" height="26" as="geometry" />
        </mxCell>
        <mxCell id="UFR7qFMbcUXyXf43g2VY-37" value="GIGABYTES(8000000000)" style="text;strokeColor=none;fillColor=none;align=left;verticalAlign=top;spacingLeft=4;spacingRight=4;overflow=hidden;rotatable=0;points=[[0,0.5],[1,0.5]];portConstraint=eastwest;" parent="UFR7qFMbcUXyXf43g2VY-27" vertex="1">
          <mxGeometry y="274" width="170" height="26" as="geometry" />
        </mxCell>
        <mxCell id="UFR7qFMbcUXyXf43g2VY-40" value="TERABYTES(8000000000000)" style="text;strokeColor=none;fillColor=none;align=left;verticalAlign=top;spacingLeft=4;spacingRight=4;overflow=hidden;rotatable=0;points=[[0,0.5],[1,0.5]];portConstraint=eastwest;" parent="UFR7qFMbcUXyXf43g2VY-27" vertex="1">
          <mxGeometry y="300" width="170" height="26" as="geometry" />
        </mxCell>
        <mxCell id="UFR7qFMbcUXyXf43g2VY-29" value="" style="line;strokeWidth=1;fillColor=none;align=left;verticalAlign=middle;spacingTop=-1;spacingLeft=3;spacingRight=3;rotatable=0;labelPosition=right;points=[];portConstraint=eastwest;" parent="UFR7qFMbcUXyXf43g2VY-27" vertex="1">
          <mxGeometry y="326" width="170" height="8" as="geometry" />
        </mxCell>
        <mxCell id="UFR7qFMbcUXyXf43g2VY-30" value="- Size(bits: long)" style="text;strokeColor=none;fillColor=none;align=left;verticalAlign=top;spacingLeft=4;spacingRight=4;overflow=hidden;rotatable=0;points=[[0,0.5],[1,0.5]];portConstraint=eastwest;" parent="UFR7qFMbcUXyXf43g2VY-27" vertex="1">
          <mxGeometry y="334" width="170" height="26" as="geometry" />
        </mxCell>
        <mxCell id="UFR7qFMbcUXyXf43g2VY-41" value="&lt;&lt;Enum&gt;&gt;&#xa;Rate&#xa;&#xa;&#xa;" style="swimlane;fontStyle=1;align=center;verticalAlign=top;childLayout=stackLayout;horizontal=1;startSize=40;horizontalStack=0;resizeParent=1;resizeParentMax=0;resizeLast=0;collapsible=1;marginBottom=0;" parent="WIyWlLk6GJQsqaUBKTNV-1" vertex="1">
          <mxGeometry x="630" y="620" width="170" height="170" as="geometry" />
        </mxCell>
        <mxCell id="UFR7qFMbcUXyXf43g2VY-43" value="BIT_PER_SECOND" style="text;strokeColor=none;fillColor=none;align=left;verticalAlign=top;spacingLeft=4;spacingRight=4;overflow=hidden;rotatable=0;points=[[0,0.5],[1,0.5]];portConstraint=eastwest;" parent="UFR7qFMbcUXyXf43g2VY-41" vertex="1">
          <mxGeometry y="40" width="170" height="26" as="geometry" />
        </mxCell>
        <mxCell id="UFR7qFMbcUXyXf43g2VY-44" value="KILOBIT_PER_SECOND" style="text;strokeColor=none;fillColor=none;align=left;verticalAlign=top;spacingLeft=4;spacingRight=4;overflow=hidden;rotatable=0;points=[[0,0.5],[1,0.5]];portConstraint=eastwest;" parent="UFR7qFMbcUXyXf43g2VY-41" vertex="1">
          <mxGeometry y="66" width="170" height="26" as="geometry" />
        </mxCell>
        <mxCell id="UFR7qFMbcUXyXf43g2VY-45" value="MEGABIT_PER_SECOND" style="text;strokeColor=none;fillColor=none;align=left;verticalAlign=top;spacingLeft=4;spacingRight=4;overflow=hidden;rotatable=0;points=[[0,0.5],[1,0.5]];portConstraint=eastwest;" parent="UFR7qFMbcUXyXf43g2VY-41" vertex="1">
          <mxGeometry y="92" width="170" height="26" as="geometry" />
        </mxCell>
        <mxCell id="UFR7qFMbcUXyXf43g2VY-46" value="GIGABIT_PER_SECOND" style="text;strokeColor=none;fillColor=none;align=left;verticalAlign=top;spacingLeft=4;spacingRight=4;overflow=hidden;rotatable=0;points=[[0,0.5],[1,0.5]];portConstraint=eastwest;" parent="UFR7qFMbcUXyXf43g2VY-41" vertex="1">
          <mxGeometry y="118" width="170" height="26" as="geometry" />
        </mxCell>
        <mxCell id="UFR7qFMbcUXyXf43g2VY-47" value="TERABIT_PER_SECOND" style="text;strokeColor=none;fillColor=none;align=left;verticalAlign=top;spacingLeft=4;spacingRight=4;overflow=hidden;rotatable=0;points=[[0,0.5],[1,0.5]];portConstraint=eastwest;" parent="UFR7qFMbcUXyXf43g2VY-41" vertex="1">
          <mxGeometry y="144" width="170" height="26" as="geometry" />
        </mxCell>
        <mxCell id="UFR7qFMbcUXyXf43g2VY-55" value="&lt;&lt;Enum&gt;&gt;&#xa;Time&#xa;&#xa;&#xa;" style="swimlane;fontStyle=1;align=center;verticalAlign=top;childLayout=stackLayout;horizontal=1;startSize=40;horizontalStack=0;resizeParent=1;resizeParentMax=0;resizeLast=0;collapsible=1;marginBottom=0;" parent="WIyWlLk6GJQsqaUBKTNV-1" vertex="1">
          <mxGeometry x="820" y="250" width="170" height="282" as="geometry" />
        </mxCell>
        <mxCell id="UFR7qFMbcUXyXf43g2VY-56" value="+ inSeconds: long{constant}" style="text;strokeColor=none;fillColor=none;align=left;verticalAlign=top;spacingLeft=4;spacingRight=4;overflow=hidden;rotatable=0;points=[[0,0.5],[1,0.5]];portConstraint=eastwest;" parent="UFR7qFMbcUXyXf43g2VY-55" vertex="1">
          <mxGeometry y="40" width="170" height="26" as="geometry" />
        </mxCell>
        <mxCell id="UFR7qFMbcUXyXf43g2VY-57" value="SECOND(1)" style="text;strokeColor=none;fillColor=none;align=left;verticalAlign=top;spacingLeft=4;spacingRight=4;overflow=hidden;rotatable=0;points=[[0,0.5],[1,0.5]];portConstraint=eastwest;" parent="UFR7qFMbcUXyXf43g2VY-55" vertex="1">
          <mxGeometry y="66" width="170" height="26" as="geometry" />
        </mxCell>
        <mxCell id="UFR7qFMbcUXyXf43g2VY-58" value="MINUTE(60)" style="text;strokeColor=none;fillColor=none;align=left;verticalAlign=top;spacingLeft=4;spacingRight=4;overflow=hidden;rotatable=0;points=[[0,0.5],[1,0.5]];portConstraint=eastwest;" parent="UFR7qFMbcUXyXf43g2VY-55" vertex="1">
          <mxGeometry y="92" width="170" height="26" as="geometry" />
        </mxCell>
        <mxCell id="UFR7qFMbcUXyXf43g2VY-59" value="HOUR(3600)" style="text;strokeColor=none;fillColor=none;align=left;verticalAlign=top;spacingLeft=4;spacingRight=4;overflow=hidden;rotatable=0;points=[[0,0.5],[1,0.5]];portConstraint=eastwest;" parent="UFR7qFMbcUXyXf43g2VY-55" vertex="1">
          <mxGeometry y="118" width="170" height="26" as="geometry" />
        </mxCell>
        <mxCell id="UFR7qFMbcUXyXf43g2VY-60" value="DAY(86400)" style="text;strokeColor=none;fillColor=none;align=left;verticalAlign=top;spacingLeft=4;spacingRight=4;overflow=hidden;rotatable=0;points=[[0,0.5],[1,0.5]];portConstraint=eastwest;" parent="UFR7qFMbcUXyXf43g2VY-55" vertex="1">
          <mxGeometry y="144" width="170" height="26" as="geometry" />
        </mxCell>
        <mxCell id="UFR7qFMbcUXyXf43g2VY-61" value="WEEK(604800)" style="text;strokeColor=none;fillColor=none;align=left;verticalAlign=top;spacingLeft=4;spacingRight=4;overflow=hidden;rotatable=0;points=[[0,0.5],[1,0.5]];portConstraint=eastwest;" parent="UFR7qFMbcUXyXf43g2VY-55" vertex="1">
          <mxGeometry y="170" width="170" height="26" as="geometry" />
        </mxCell>
        <mxCell id="UFR7qFMbcUXyXf43g2VY-62" value="MONTH(2629800)" style="text;strokeColor=none;fillColor=none;align=left;verticalAlign=top;spacingLeft=4;spacingRight=4;overflow=hidden;rotatable=0;points=[[0,0.5],[1,0.5]];portConstraint=eastwest;" parent="UFR7qFMbcUXyXf43g2VY-55" vertex="1">
          <mxGeometry y="196" width="170" height="26" as="geometry" />
        </mxCell>
        <mxCell id="UFR7qFMbcUXyXf43g2VY-63" value="YEAR(31557600)" style="text;strokeColor=none;fillColor=none;align=left;verticalAlign=top;spacingLeft=4;spacingRight=4;overflow=hidden;rotatable=0;points=[[0,0.5],[1,0.5]];portConstraint=eastwest;" parent="UFR7qFMbcUXyXf43g2VY-55" vertex="1">
          <mxGeometry y="222" width="170" height="26" as="geometry" />
        </mxCell>
        <mxCell id="UFR7qFMbcUXyXf43g2VY-67" value="" style="line;strokeWidth=1;fillColor=none;align=left;verticalAlign=middle;spacingTop=-1;spacingLeft=3;spacingRight=3;rotatable=0;labelPosition=right;points=[];portConstraint=eastwest;" parent="UFR7qFMbcUXyXf43g2VY-55" vertex="1">
          <mxGeometry y="248" width="170" height="8" as="geometry" />
        </mxCell>
        <mxCell id="UFR7qFMbcUXyXf43g2VY-68" value="- Time(seconds: long)" style="text;strokeColor=none;fillColor=none;align=left;verticalAlign=top;spacingLeft=4;spacingRight=4;overflow=hidden;rotatable=0;points=[[0,0.5],[1,0.5]];portConstraint=eastwest;" parent="UFR7qFMbcUXyXf43g2VY-55" vertex="1">
          <mxGeometry y="256" width="170" height="26" as="geometry" />
        </mxCell>
        <mxCell id="UFR7qFMbcUXyXf43g2VY-69" style="edgeStyle=orthogonalEdgeStyle;rounded=0;orthogonalLoop=1;jettySize=auto;html=1;exitX=0;exitY=0.25;exitDx=0;exitDy=0;entryX=1;entryY=0.25;entryDx=0;entryDy=0;" parent="WIyWlLk6GJQsqaUBKTNV-1" source="UFR7qFMbcUXyXf43g2VY-41" target="UFR7qFMbcUXyXf43g2VY-5" edge="1">
          <mxGeometry relative="1" as="geometry">
            <Array as="points">
              <mxPoint x="600" y="663" />
              <mxPoint x="600" y="525" />
            </Array>
          </mxGeometry>
        </mxCell>
        <mxCell id="UFR7qFMbcUXyXf43g2VY-70" style="edgeStyle=orthogonalEdgeStyle;rounded=0;orthogonalLoop=1;jettySize=auto;html=1;entryX=1;entryY=0.088;entryDx=0;entryDy=0;entryPerimeter=0;exitX=0.5;exitY=1;exitDx=0;exitDy=0;" parent="WIyWlLk6GJQsqaUBKTNV-1" source="UFR7qFMbcUXyXf43g2VY-55" target="UFR7qFMbcUXyXf43g2VY-9" edge="1">
          <mxGeometry relative="1" as="geometry">
            <mxPoint x="840" y="590" as="sourcePoint" />
            <Array as="points">
              <mxPoint x="905" y="820" />
              <mxPoint x="580" y="820" />
              <mxPoint x="580" y="629" />
            </Array>
          </mxGeometry>
        </mxCell>
        <mxCell id="UFR7qFMbcUXyXf43g2VY-73" style="edgeStyle=orthogonalEdgeStyle;rounded=0;orthogonalLoop=1;jettySize=auto;html=1;exitX=0;exitY=0.5;exitDx=0;exitDy=0;entryX=1;entryY=0.5;entryDx=0;entryDy=0;" parent="WIyWlLk6GJQsqaUBKTNV-1" source="UFR7qFMbcUXyXf43g2VY-32" target="UFR7qFMbcUXyXf43g2VY-1" edge="1">
          <mxGeometry relative="1" as="geometry" />
        </mxCell>
        <mxCell id="pEVWOKsxLj1dPR-0CNbp-49" value="Calculator" style="swimlane;fontStyle=3;align=center;verticalAlign=top;childLayout=stackLayout;horizontal=1;startSize=26;horizontalStack=0;resizeParent=1;resizeParentMax=0;resizeLast=0;collapsible=1;marginBottom=0;strokeColor=#FFFFFF;" parent="WIyWlLk6GJQsqaUBKTNV-1" vertex="1">
          <mxGeometry x="-550" y="490" width="220" height="230" as="geometry" />
        </mxCell>
        <mxCell id="pEVWOKsxLj1dPR-0CNbp-51" value="- value : Number" style="text;strokeColor=none;fillColor=none;align=left;verticalAlign=top;spacingLeft=4;spacingRight=4;overflow=hidden;rotatable=0;points=[[0,0.5],[1,0.5]];portConstraint=eastwest;" parent="pEVWOKsxLj1dPR-0CNbp-49" vertex="1">
          <mxGeometry y="26" width="220" height="20" as="geometry" />
        </mxCell>
        <mxCell id="pEVWOKsxLj1dPR-0CNbp-50" value="- unit : Unit" style="text;strokeColor=none;fillColor=none;align=left;verticalAlign=top;spacingLeft=4;spacingRight=4;overflow=hidden;rotatable=0;points=[[0,0.5],[1,0.5]];portConstraint=eastwest;" parent="pEVWOKsxLj1dPR-0CNbp-49" vertex="1">
          <mxGeometry y="46" width="220" height="24" as="geometry" />
        </mxCell>
        <mxCell id="pEVWOKsxLj1dPR-0CNbp-52" value="" style="line;strokeWidth=1;fillColor=none;align=left;verticalAlign=middle;spacingTop=-1;spacingLeft=3;spacingRight=3;rotatable=0;labelPosition=right;points=[];portConstraint=eastwest;" parent="pEVWOKsxLj1dPR-0CNbp-49" vertex="1">
          <mxGeometry y="70" width="220" height="8" as="geometry" />
        </mxCell>
        <mxCell id="pEVWOKsxLj1dPR-0CNbp-53" value="+ Calculator(value: Number, unit: Unit)&#xa;&#xa;" style="text;strokeColor=none;fillColor=none;align=left;verticalAlign=top;spacingLeft=4;spacingRight=4;overflow=hidden;rotatable=0;points=[[0,0.5],[1,0.5]];portConstraint=eastwest;fontStyle=0" parent="pEVWOKsxLj1dPR-0CNbp-49" vertex="1">
          <mxGeometry y="78" width="220" height="32" as="geometry" />
        </mxCell>
        <mxCell id="pEVWOKsxLj1dPR-0CNbp-135" value="+ add(oNum: Number): Number" style="text;strokeColor=none;fillColor=none;align=left;verticalAlign=top;spacingLeft=4;spacingRight=4;overflow=hidden;rotatable=0;points=[[0,0.5],[1,0.5]];portConstraint=eastwest;fontStyle=2" parent="pEVWOKsxLj1dPR-0CNbp-49" vertex="1">
          <mxGeometry y="110" width="220" height="30" as="geometry" />
        </mxCell>
        <mxCell id="pEVWOKsxLj1dPR-0CNbp-138" value="+ subtract(oNum: Number): Number" style="text;strokeColor=none;fillColor=none;align=left;verticalAlign=top;spacingLeft=4;spacingRight=4;overflow=hidden;rotatable=0;points=[[0,0.5],[1,0.5]];portConstraint=eastwest;fontStyle=2" parent="pEVWOKsxLj1dPR-0CNbp-49" vertex="1">
          <mxGeometry y="140" width="220" height="30" as="geometry" />
        </mxCell>
        <mxCell id="pEVWOKsxLj1dPR-0CNbp-137" value="+ multiply(oNum: Number): Number" style="text;strokeColor=none;fillColor=none;align=left;verticalAlign=top;spacingLeft=4;spacingRight=4;overflow=hidden;rotatable=0;points=[[0,0.5],[1,0.5]];portConstraint=eastwest;fontStyle=2" parent="pEVWOKsxLj1dPR-0CNbp-49" vertex="1">
          <mxGeometry y="170" width="220" height="30" as="geometry" />
        </mxCell>
        <mxCell id="pEVWOKsxLj1dPR-0CNbp-136" value="+ divide(oNum: Number): Number" style="text;strokeColor=none;fillColor=none;align=left;verticalAlign=top;spacingLeft=4;spacingRight=4;overflow=hidden;rotatable=0;points=[[0,0.5],[1,0.5]];portConstraint=eastwest;fontStyle=2" parent="pEVWOKsxLj1dPR-0CNbp-49" vertex="1">
          <mxGeometry y="200" width="220" height="30" as="geometry" />
        </mxCell>
        <mxCell id="pEVWOKsxLj1dPR-0CNbp-55" value="BinaryCalculator" style="swimlane;fontStyle=1;align=center;verticalAlign=top;childLayout=stackLayout;horizontal=1;startSize=26;horizontalStack=0;resizeParent=1;resizeParentMax=0;resizeLast=0;collapsible=1;marginBottom=0;strokeColor=#FFFFFF;" parent="WIyWlLk6GJQsqaUBKTNV-1" vertex="1">
          <mxGeometry x="-250" y="350" width="250" height="212" as="geometry" />
        </mxCell>
        <mxCell id="pEVWOKsxLj1dPR-0CNbp-118" value="+ BinaryCalculator(oNum: Binary)" style="text;strokeColor=none;fillColor=none;align=left;verticalAlign=top;spacingLeft=4;spacingRight=4;overflow=hidden;rotatable=0;points=[[0,0.5],[1,0.5]];portConstraint=eastwest;fontStyle=0" parent="pEVWOKsxLj1dPR-0CNbp-55" vertex="1">
          <mxGeometry y="26" width="250" height="30" as="geometry" />
        </mxCell>
        <mxCell id="pEVWOKsxLj1dPR-0CNbp-57" value="" style="line;strokeWidth=1;fillColor=none;align=left;verticalAlign=middle;spacingTop=-1;spacingLeft=3;spacingRight=3;rotatable=0;labelPosition=right;points=[];portConstraint=eastwest;" parent="pEVWOKsxLj1dPR-0CNbp-55" vertex="1">
          <mxGeometry y="56" width="250" height="10" as="geometry" />
        </mxCell>
        <mxCell id="pEVWOKsxLj1dPR-0CNbp-54" value="+ add(oNum: Binary): Binary" style="text;strokeColor=none;fillColor=none;align=left;verticalAlign=top;spacingLeft=4;spacingRight=4;overflow=hidden;rotatable=0;points=[[0,0.5],[1,0.5]];portConstraint=eastwest;fontStyle=0" parent="pEVWOKsxLj1dPR-0CNbp-55" vertex="1">
          <mxGeometry y="66" width="250" height="30" as="geometry" />
        </mxCell>
        <mxCell id="pEVWOKsxLj1dPR-0CNbp-94" value="+ divide(oNum: Binary): Binary" style="text;strokeColor=none;fillColor=none;align=left;verticalAlign=top;spacingLeft=4;spacingRight=4;overflow=hidden;rotatable=0;points=[[0,0.5],[1,0.5]];portConstraint=eastwest;fontStyle=0" parent="pEVWOKsxLj1dPR-0CNbp-55" vertex="1">
          <mxGeometry y="96" width="250" height="30" as="geometry" />
        </mxCell>
        <mxCell id="pEVWOKsxLj1dPR-0CNbp-93" value="+ multiply(oNum: Binary): Binary" style="text;strokeColor=none;fillColor=none;align=left;verticalAlign=top;spacingLeft=4;spacingRight=4;overflow=hidden;rotatable=0;points=[[0,0.5],[1,0.5]];portConstraint=eastwest;fontStyle=0" parent="pEVWOKsxLj1dPR-0CNbp-55" vertex="1">
          <mxGeometry y="126" width="250" height="30" as="geometry" />
        </mxCell>
        <mxCell id="pEVWOKsxLj1dPR-0CNbp-92" value="+ subtract(oNum: Binary): Binary" style="text;strokeColor=none;fillColor=none;align=left;verticalAlign=top;spacingLeft=4;spacingRight=4;overflow=hidden;rotatable=0;points=[[0,0.5],[1,0.5]];portConstraint=eastwest;fontStyle=0" parent="pEVWOKsxLj1dPR-0CNbp-55" vertex="1">
          <mxGeometry y="156" width="250" height="30" as="geometry" />
        </mxCell>
        <mxCell id="pEVWOKsxLj1dPR-0CNbp-95" value="+ convertTo(type: View.NumberSystem): Number" style="text;strokeColor=none;fillColor=none;align=left;verticalAlign=top;spacingLeft=4;spacingRight=4;overflow=hidden;rotatable=0;points=[[0,0.5],[1,0.5]];portConstraint=eastwest;" parent="pEVWOKsxLj1dPR-0CNbp-55" vertex="1">
          <mxGeometry y="186" width="250" height="26" as="geometry" />
        </mxCell>
        <mxCell id="pEVWOKsxLj1dPR-0CNbp-59" value="" style="endArrow=classic;html=1;exitX=0;exitY=0;exitDx=0;exitDy=0;entryX=1;entryY=0.25;entryDx=0;entryDy=0;" parent="WIyWlLk6GJQsqaUBKTNV-1" source="pEVWOKsxLj1dPR-0CNbp-55" target="pEVWOKsxLj1dPR-0CNbp-49" edge="1">
          <mxGeometry width="50" height="50" relative="1" as="geometry">
            <mxPoint x="30" y="700" as="sourcePoint" />
            <mxPoint x="80" y="650" as="targetPoint" />
          </mxGeometry>
        </mxCell>
        <mxCell id="pEVWOKsxLj1dPR-0CNbp-60" value="" style="endArrow=classic;html=1;exitX=0;exitY=0;exitDx=0;exitDy=0;entryX=1;entryY=0.5;entryDx=0;entryDy=0;" parent="WIyWlLk6GJQsqaUBKTNV-1" source="pEVWOKsxLj1dPR-0CNbp-96" target="pEVWOKsxLj1dPR-0CNbp-49" edge="1">
          <mxGeometry width="50" height="50" relative="1" as="geometry">
            <mxPoint x="-240" y="700" as="sourcePoint" />
            <mxPoint x="-80" y="590" as="targetPoint" />
          </mxGeometry>
        </mxCell>
        <mxCell id="pEVWOKsxLj1dPR-0CNbp-61" value="" style="endArrow=classic;html=1;exitX=0;exitY=0;exitDx=0;exitDy=0;entryX=1;entryY=0.75;entryDx=0;entryDy=0;" parent="WIyWlLk6GJQsqaUBKTNV-1" source="pEVWOKsxLj1dPR-0CNbp-103" target="pEVWOKsxLj1dPR-0CNbp-49" edge="1">
          <mxGeometry width="50" height="50" relative="1" as="geometry">
            <mxPoint x="-240" y="820" as="sourcePoint" />
            <mxPoint x="-50" y="490" as="targetPoint" />
          </mxGeometry>
        </mxCell>
        <mxCell id="pEVWOKsxLj1dPR-0CNbp-78" value="&lt;&lt;interface&gt;&gt;&#xa;Convertible&#xa;" style="swimlane;fontStyle=0;childLayout=stackLayout;horizontal=1;startSize=50;horizontalStack=0;resizeParent=1;resizeParentMax=0;resizeLast=0;collapsible=1;marginBottom=0;" parent="WIyWlLk6GJQsqaUBKTNV-1" vertex="1">
          <mxGeometry x="-565" y="220" width="250" height="76" as="geometry" />
        </mxCell>
        <mxCell id="pEVWOKsxLj1dPR-0CNbp-79" value="+ convertTo(type: View.NumberSystem): Number" style="text;strokeColor=none;fillColor=none;align=left;verticalAlign=top;spacingLeft=4;spacingRight=4;overflow=hidden;rotatable=0;points=[[0,0.5],[1,0.5]];portConstraint=eastwest;" parent="pEVWOKsxLj1dPR-0CNbp-78" vertex="1">
          <mxGeometry y="50" width="250" height="26" as="geometry" />
        </mxCell>
        <mxCell id="pEVWOKsxLj1dPR-0CNbp-86" value="&lt;&lt;Enum&gt;&gt;&#xa;View.NumberSystem&#xa;" style="swimlane;fontStyle=0;childLayout=stackLayout;horizontal=1;startSize=50;horizontalStack=0;resizeParent=1;resizeParentMax=0;resizeLast=0;collapsible=1;marginBottom=0;" parent="WIyWlLk6GJQsqaUBKTNV-1" vertex="1">
          <mxGeometry x="-280" y="70" width="170" height="128" as="geometry" />
        </mxCell>
        <mxCell id="pEVWOKsxLj1dPR-0CNbp-87" value="BINARY" style="text;strokeColor=none;fillColor=none;align=left;verticalAlign=top;spacingLeft=4;spacingRight=4;overflow=hidden;rotatable=0;points=[[0,0.5],[1,0.5]];portConstraint=eastwest;" parent="pEVWOKsxLj1dPR-0CNbp-86" vertex="1">
          <mxGeometry y="50" width="170" height="26" as="geometry" />
        </mxCell>
        <mxCell id="pEVWOKsxLj1dPR-0CNbp-88" value="HEX" style="text;strokeColor=none;fillColor=none;align=left;verticalAlign=top;spacingLeft=4;spacingRight=4;overflow=hidden;rotatable=0;points=[[0,0.5],[1,0.5]];portConstraint=eastwest;" parent="pEVWOKsxLj1dPR-0CNbp-86" vertex="1">
          <mxGeometry y="76" width="170" height="26" as="geometry" />
        </mxCell>
        <mxCell id="pEVWOKsxLj1dPR-0CNbp-89" value="DECIMAL" style="text;strokeColor=none;fillColor=none;align=left;verticalAlign=top;spacingLeft=4;spacingRight=4;overflow=hidden;rotatable=0;points=[[0,0.5],[1,0.5]];portConstraint=eastwest;" parent="pEVWOKsxLj1dPR-0CNbp-86" vertex="1">
          <mxGeometry y="102" width="170" height="26" as="geometry" />
        </mxCell>
        <mxCell id="pEVWOKsxLj1dPR-0CNbp-90" value="Use" style="endArrow=open;endSize=12;dashed=1;html=1;exitX=0.5;exitY=0;exitDx=0;exitDy=0;entryX=0;entryY=0.25;entryDx=0;entryDy=0;" parent="WIyWlLk6GJQsqaUBKTNV-1" source="pEVWOKsxLj1dPR-0CNbp-78" target="pEVWOKsxLj1dPR-0CNbp-86" edge="1">
          <mxGeometry x="0.4894" width="160" relative="1" as="geometry">
            <mxPoint x="85" y="300" as="sourcePoint" />
            <mxPoint x="-315" y="102" as="targetPoint" />
            <Array as="points">
              <mxPoint x="-440" y="102" />
            </Array>
            <mxPoint as="offset" />
          </mxGeometry>
        </mxCell>
        <mxCell id="pEVWOKsxLj1dPR-0CNbp-91" value="" style="endArrow=block;dashed=1;endFill=0;endSize=12;html=1;exitX=0.5;exitY=0;exitDx=0;exitDy=0;entryX=0.5;entryY=1;entryDx=0;entryDy=0;" parent="WIyWlLk6GJQsqaUBKTNV-1" source="pEVWOKsxLj1dPR-0CNbp-49" target="pEVWOKsxLj1dPR-0CNbp-78" edge="1">
          <mxGeometry width="160" relative="1" as="geometry">
            <mxPoint x="30" y="390" as="sourcePoint" />
            <mxPoint x="190" y="390" as="targetPoint" />
          </mxGeometry>
        </mxCell>
        <mxCell id="pEVWOKsxLj1dPR-0CNbp-96" value="HexCalculator" style="swimlane;fontStyle=1;align=center;verticalAlign=top;childLayout=stackLayout;horizontal=1;startSize=26;horizontalStack=0;resizeParent=1;resizeParentMax=0;resizeLast=0;collapsible=1;marginBottom=0;strokeColor=#FFFFFF;" parent="WIyWlLk6GJQsqaUBKTNV-1" vertex="1">
          <mxGeometry x="-250" y="590" width="250" height="212" as="geometry" />
        </mxCell>
        <mxCell id="pEVWOKsxLj1dPR-0CNbp-119" value="+ HexCalculator(oNum: Hex)" style="text;strokeColor=none;fillColor=none;align=left;verticalAlign=top;spacingLeft=4;spacingRight=4;overflow=hidden;rotatable=0;points=[[0,0.5],[1,0.5]];portConstraint=eastwest;fontStyle=0" parent="pEVWOKsxLj1dPR-0CNbp-96" vertex="1">
          <mxGeometry y="26" width="250" height="30" as="geometry" />
        </mxCell>
        <mxCell id="pEVWOKsxLj1dPR-0CNbp-97" value="" style="line;strokeWidth=1;fillColor=none;align=left;verticalAlign=middle;spacingTop=-1;spacingLeft=3;spacingRight=3;rotatable=0;labelPosition=right;points=[];portConstraint=eastwest;" parent="pEVWOKsxLj1dPR-0CNbp-96" vertex="1">
          <mxGeometry y="56" width="250" height="10" as="geometry" />
        </mxCell>
        <mxCell id="pEVWOKsxLj1dPR-0CNbp-98" value="+ add(oNum: Hex): Hex" style="text;strokeColor=none;fillColor=none;align=left;verticalAlign=top;spacingLeft=4;spacingRight=4;overflow=hidden;rotatable=0;points=[[0,0.5],[1,0.5]];portConstraint=eastwest;fontStyle=0" parent="pEVWOKsxLj1dPR-0CNbp-96" vertex="1">
          <mxGeometry y="66" width="250" height="30" as="geometry" />
        </mxCell>
        <mxCell id="pEVWOKsxLj1dPR-0CNbp-99" value="+ divide(oNum: Hex): Hex" style="text;strokeColor=none;fillColor=none;align=left;verticalAlign=top;spacingLeft=4;spacingRight=4;overflow=hidden;rotatable=0;points=[[0,0.5],[1,0.5]];portConstraint=eastwest;fontStyle=0" parent="pEVWOKsxLj1dPR-0CNbp-96" vertex="1">
          <mxGeometry y="96" width="250" height="30" as="geometry" />
        </mxCell>
        <mxCell id="pEVWOKsxLj1dPR-0CNbp-100" value="+ multiply(oNum: Hex): Hex" style="text;strokeColor=none;fillColor=none;align=left;verticalAlign=top;spacingLeft=4;spacingRight=4;overflow=hidden;rotatable=0;points=[[0,0.5],[1,0.5]];portConstraint=eastwest;fontStyle=0" parent="pEVWOKsxLj1dPR-0CNbp-96" vertex="1">
          <mxGeometry y="126" width="250" height="30" as="geometry" />
        </mxCell>
        <mxCell id="pEVWOKsxLj1dPR-0CNbp-101" value="+ subtract(oNum: Hex): Hex" style="text;strokeColor=none;fillColor=none;align=left;verticalAlign=top;spacingLeft=4;spacingRight=4;overflow=hidden;rotatable=0;points=[[0,0.5],[1,0.5]];portConstraint=eastwest;fontStyle=0" parent="pEVWOKsxLj1dPR-0CNbp-96" vertex="1">
          <mxGeometry y="156" width="250" height="30" as="geometry" />
        </mxCell>
        <mxCell id="pEVWOKsxLj1dPR-0CNbp-102" value="+ convertTo(type: View.NumberSystem): Number" style="text;strokeColor=none;fillColor=none;align=left;verticalAlign=top;spacingLeft=4;spacingRight=4;overflow=hidden;rotatable=0;points=[[0,0.5],[1,0.5]];portConstraint=eastwest;" parent="pEVWOKsxLj1dPR-0CNbp-96" vertex="1">
          <mxGeometry y="186" width="250" height="26" as="geometry" />
        </mxCell>
        <mxCell id="pEVWOKsxLj1dPR-0CNbp-103" value="DecimalCalculator" style="swimlane;fontStyle=1;align=center;verticalAlign=top;childLayout=stackLayout;horizontal=1;startSize=26;horizontalStack=0;resizeParent=1;resizeParentMax=0;resizeLast=0;collapsible=1;marginBottom=0;strokeColor=#FFFFFF;" parent="WIyWlLk6GJQsqaUBKTNV-1" vertex="1">
          <mxGeometry x="-250" y="830" width="250" height="212" as="geometry" />
        </mxCell>
        <mxCell id="pEVWOKsxLj1dPR-0CNbp-120" value="+ DecimalCalculator(oNum: Decimal)" style="text;strokeColor=none;fillColor=none;align=left;verticalAlign=top;spacingLeft=4;spacingRight=4;overflow=hidden;rotatable=0;points=[[0,0.5],[1,0.5]];portConstraint=eastwest;fontStyle=0" parent="pEVWOKsxLj1dPR-0CNbp-103" vertex="1">
          <mxGeometry y="26" width="250" height="30" as="geometry" />
        </mxCell>
        <mxCell id="pEVWOKsxLj1dPR-0CNbp-104" value="" style="line;strokeWidth=1;fillColor=none;align=left;verticalAlign=middle;spacingTop=-1;spacingLeft=3;spacingRight=3;rotatable=0;labelPosition=right;points=[];portConstraint=eastwest;" parent="pEVWOKsxLj1dPR-0CNbp-103" vertex="1">
          <mxGeometry y="56" width="250" height="10" as="geometry" />
        </mxCell>
        <mxCell id="pEVWOKsxLj1dPR-0CNbp-105" value="+ add(oNum: Decimal): Decimal" style="text;strokeColor=none;fillColor=none;align=left;verticalAlign=top;spacingLeft=4;spacingRight=4;overflow=hidden;rotatable=0;points=[[0,0.5],[1,0.5]];portConstraint=eastwest;fontStyle=0" parent="pEVWOKsxLj1dPR-0CNbp-103" vertex="1">
          <mxGeometry y="66" width="250" height="30" as="geometry" />
        </mxCell>
        <mxCell id="pEVWOKsxLj1dPR-0CNbp-106" value="+ divide(oNum: Decimal): Decimal" style="text;strokeColor=none;fillColor=none;align=left;verticalAlign=top;spacingLeft=4;spacingRight=4;overflow=hidden;rotatable=0;points=[[0,0.5],[1,0.5]];portConstraint=eastwest;fontStyle=0" parent="pEVWOKsxLj1dPR-0CNbp-103" vertex="1">
          <mxGeometry y="96" width="250" height="30" as="geometry" />
        </mxCell>
        <mxCell id="pEVWOKsxLj1dPR-0CNbp-107" value="+ multiply(oNum: Decimal): Decimal" style="text;strokeColor=none;fillColor=none;align=left;verticalAlign=top;spacingLeft=4;spacingRight=4;overflow=hidden;rotatable=0;points=[[0,0.5],[1,0.5]];portConstraint=eastwest;fontStyle=0" parent="pEVWOKsxLj1dPR-0CNbp-103" vertex="1">
          <mxGeometry y="126" width="250" height="30" as="geometry" />
        </mxCell>
        <mxCell id="pEVWOKsxLj1dPR-0CNbp-108" value="+ subtract(oNum: Decimal): Decimal" style="text;strokeColor=none;fillColor=none;align=left;verticalAlign=top;spacingLeft=4;spacingRight=4;overflow=hidden;rotatable=0;points=[[0,0.5],[1,0.5]];portConstraint=eastwest;fontStyle=0" parent="pEVWOKsxLj1dPR-0CNbp-103" vertex="1">
          <mxGeometry y="156" width="250" height="30" as="geometry" />
        </mxCell>
        <mxCell id="pEVWOKsxLj1dPR-0CNbp-109" value="+ convertTo(type: View.NumberSystem): Number" style="text;strokeColor=none;fillColor=none;align=left;verticalAlign=top;spacingLeft=4;spacingRight=4;overflow=hidden;rotatable=0;points=[[0,0.5],[1,0.5]];portConstraint=eastwest;" parent="pEVWOKsxLj1dPR-0CNbp-103" vertex="1">
          <mxGeometry y="186" width="250" height="26" as="geometry" />
        </mxCell>
        <mxCell id="pEVWOKsxLj1dPR-0CNbp-111" value="App" style="swimlane;fontStyle=1;align=center;verticalAlign=top;childLayout=stackLayout;horizontal=1;startSize=26;horizontalStack=0;resizeParent=1;resizeParentMax=0;resizeLast=0;collapsible=1;marginBottom=0;strokeColor=#FFFFFF;" parent="WIyWlLk6GJQsqaUBKTNV-1" vertex="1">
          <mxGeometry x="-820" y="147" width="160" height="86" as="geometry" />
        </mxCell>
        <mxCell id="pEVWOKsxLj1dPR-0CNbp-113" value="" style="line;strokeWidth=1;fillColor=none;align=left;verticalAlign=middle;spacingTop=-1;spacingLeft=3;spacingRight=3;rotatable=0;labelPosition=right;points=[];portConstraint=eastwest;" parent="pEVWOKsxLj1dPR-0CNbp-111" vertex="1">
          <mxGeometry y="26" width="160" height="8" as="geometry" />
        </mxCell>
        <mxCell id="pEVWOKsxLj1dPR-0CNbp-114" value="+ main() {static}" style="text;strokeColor=none;fillColor=none;align=left;verticalAlign=top;spacingLeft=4;spacingRight=4;overflow=hidden;rotatable=0;points=[[0,0.5],[1,0.5]];portConstraint=eastwest;" parent="pEVWOKsxLj1dPR-0CNbp-111" vertex="1">
          <mxGeometry y="34" width="160" height="26" as="geometry" />
        </mxCell>
        <mxCell id="pEVWOKsxLj1dPR-0CNbp-116" value="- fileIO()" style="text;strokeColor=none;fillColor=none;align=left;verticalAlign=top;spacingLeft=4;spacingRight=4;overflow=hidden;rotatable=0;points=[[0,0.5],[1,0.5]];portConstraint=eastwest;" parent="pEVWOKsxLj1dPR-0CNbp-111" vertex="1">
          <mxGeometry y="60" width="160" height="26" as="geometry" />
        </mxCell>
        <mxCell id="pEVWOKsxLj1dPR-0CNbp-121" value="DownloadUploadCalculator " style="swimlane;fontStyle=1;align=center;verticalAlign=top;childLayout=stackLayout;horizontal=1;startSize=26;horizontalStack=0;resizeParent=1;resizeParentMax=0;resizeLast=0;collapsible=1;marginBottom=0;strokeColor=#FFFFFF;" parent="WIyWlLk6GJQsqaUBKTNV-1" vertex="1">
          <mxGeometry x="-820" y="856" width="430" height="190" as="geometry" />
        </mxCell>
        <mxCell id="pEVWOKsxLj1dPR-0CNbp-122" value="- size: Decimal" style="text;strokeColor=none;fillColor=none;align=left;verticalAlign=top;spacingLeft=4;spacingRight=4;overflow=hidden;rotatable=0;points=[[0,0.5],[1,0.5]];portConstraint=eastwest;" parent="pEVWOKsxLj1dPR-0CNbp-121" vertex="1">
          <mxGeometry y="26" width="430" height="26" as="geometry" />
        </mxCell>
        <mxCell id="pEVWOKsxLj1dPR-0CNbp-131" value="- sizeUnit: SizeUnit" style="text;strokeColor=none;fillColor=none;align=left;verticalAlign=top;spacingLeft=4;spacingRight=4;overflow=hidden;rotatable=0;points=[[0,0.5],[1,0.5]];portConstraint=eastwest;" parent="pEVWOKsxLj1dPR-0CNbp-121" vertex="1">
          <mxGeometry y="52" width="430" height="26" as="geometry" />
        </mxCell>
        <mxCell id="pEVWOKsxLj1dPR-0CNbp-133" value="- bandwidth: Decimal" style="text;strokeColor=none;fillColor=none;align=left;verticalAlign=top;spacingLeft=4;spacingRight=4;overflow=hidden;rotatable=0;points=[[0,0.5],[1,0.5]];portConstraint=eastwest;" parent="pEVWOKsxLj1dPR-0CNbp-121" vertex="1">
          <mxGeometry y="78" width="430" height="26" as="geometry" />
        </mxCell>
        <mxCell id="pEVWOKsxLj1dPR-0CNbp-132" value="- bandwidthUnit:RateUnit" style="text;strokeColor=none;fillColor=none;align=left;verticalAlign=top;spacingLeft=4;spacingRight=4;overflow=hidden;rotatable=0;points=[[0,0.5],[1,0.5]];portConstraint=eastwest;" parent="pEVWOKsxLj1dPR-0CNbp-121" vertex="1">
          <mxGeometry y="104" width="430" height="26" as="geometry" />
        </mxCell>
        <mxCell id="pEVWOKsxLj1dPR-0CNbp-123" value="" style="line;strokeWidth=1;fillColor=none;align=left;verticalAlign=middle;spacingTop=-1;spacingLeft=3;spacingRight=3;rotatable=0;labelPosition=right;points=[];portConstraint=eastwest;" parent="pEVWOKsxLj1dPR-0CNbp-121" vertex="1">
          <mxGeometry y="130" width="430" height="8" as="geometry" />
        </mxCell>
        <mxCell id="pEVWOKsxLj1dPR-0CNbp-124" value="+ DownloadUploadCalculator(s: Decimal, sU: SizeUnit, b: Decimal, bU: RateUnit) " style="text;strokeColor=none;fillColor=none;align=left;verticalAlign=top;spacingLeft=4;spacingRight=4;overflow=hidden;rotatable=0;points=[[0,0.5],[1,0.5]];portConstraint=eastwest;" parent="pEVWOKsxLj1dPR-0CNbp-121" vertex="1">
          <mxGeometry y="138" width="430" height="26" as="geometry" />
        </mxCell>
        <mxCell id="pEVWOKsxLj1dPR-0CNbp-134" value="+ calculate(): TimeUnit[4]" style="text;strokeColor=none;fillColor=none;align=left;verticalAlign=top;spacingLeft=4;spacingRight=4;overflow=hidden;rotatable=0;points=[[0,0.5],[1,0.5]];portConstraint=eastwest;" parent="pEVWOKsxLj1dPR-0CNbp-121" vertex="1">
          <mxGeometry y="164" width="430" height="26" as="geometry" />
        </mxCell>
        <mxCell id="pEVWOKsxLj1dPR-0CNbp-130" value="" style="endArrow=classic;html=1;exitX=1;exitY=0.25;exitDx=0;exitDy=0;entryX=0;entryY=0.5;entryDx=0;entryDy=0;" parent="WIyWlLk6GJQsqaUBKTNV-1" source="pEVWOKsxLj1dPR-0CNbp-121" target="pEVWOKsxLj1dPR-0CNbp-120" edge="1">
          <mxGeometry width="50" height="50" relative="1" as="geometry">
            <mxPoint x="-180" y="810" as="sourcePoint" />
            <mxPoint x="-130" y="760" as="targetPoint" />
          </mxGeometry>
        </mxCell>
        <mxCell id="pEVWOKsxLj1dPR-0CNbp-139" value="WebsiteBandwidthCalculator" style="swimlane;fontStyle=1;align=center;verticalAlign=top;childLayout=stackLayout;horizontal=1;startSize=26;horizontalStack=0;resizeParent=1;resizeParentMax=0;resizeLast=0;collapsible=1;marginBottom=0;strokeColor=#FFFFFF;" parent="WIyWlLk6GJQsqaUBKTNV-1" vertex="1">
          <mxGeometry x="-880" y="1070" width="490" height="216" as="geometry" />
        </mxCell>
        <mxCell id="pEVWOKsxLj1dPR-0CNbp-140" value="- view: Decimal" style="text;strokeColor=none;fillColor=none;align=left;verticalAlign=top;spacingLeft=4;spacingRight=4;overflow=hidden;rotatable=0;points=[[0,0.5],[1,0.5]];portConstraint=eastwest;" parent="pEVWOKsxLj1dPR-0CNbp-139" vertex="1">
          <mxGeometry y="26" width="490" height="26" as="geometry" />
        </mxCell>
        <mxCell id="pEVWOKsxLj1dPR-0CNbp-141" value="- viewUnit: TimeUnit" style="text;strokeColor=none;fillColor=none;align=left;verticalAlign=top;spacingLeft=4;spacingRight=4;overflow=hidden;rotatable=0;points=[[0,0.5],[1,0.5]];portConstraint=eastwest;" parent="pEVWOKsxLj1dPR-0CNbp-139" vertex="1">
          <mxGeometry y="52" width="490" height="26" as="geometry" />
        </mxCell>
        <mxCell id="pEVWOKsxLj1dPR-0CNbp-142" value="- size: Decimal" style="text;strokeColor=none;fillColor=none;align=left;verticalAlign=top;spacingLeft=4;spacingRight=4;overflow=hidden;rotatable=0;points=[[0,0.5],[1,0.5]];portConstraint=eastwest;" parent="pEVWOKsxLj1dPR-0CNbp-139" vertex="1">
          <mxGeometry y="78" width="490" height="26" as="geometry" />
        </mxCell>
        <mxCell id="pEVWOKsxLj1dPR-0CNbp-143" value="- sizeUnit: SizeUnit" style="text;strokeColor=none;fillColor=none;align=left;verticalAlign=top;spacingLeft=4;spacingRight=4;overflow=hidden;rotatable=0;points=[[0,0.5],[1,0.5]];portConstraint=eastwest;" parent="pEVWOKsxLj1dPR-0CNbp-139" vertex="1">
          <mxGeometry y="104" width="490" height="26" as="geometry" />
        </mxCell>
        <mxCell id="pEVWOKsxLj1dPR-0CNbp-147" value="- reFactor: int" style="text;strokeColor=none;fillColor=none;align=left;verticalAlign=top;spacingLeft=4;spacingRight=4;overflow=hidden;rotatable=0;points=[[0,0.5],[1,0.5]];portConstraint=eastwest;" parent="pEVWOKsxLj1dPR-0CNbp-139" vertex="1">
          <mxGeometry y="130" width="490" height="26" as="geometry" />
        </mxCell>
        <mxCell id="pEVWOKsxLj1dPR-0CNbp-144" value="" style="line;strokeWidth=1;fillColor=none;align=left;verticalAlign=middle;spacingTop=-1;spacingLeft=3;spacingRight=3;rotatable=0;labelPosition=right;points=[];portConstraint=eastwest;" parent="pEVWOKsxLj1dPR-0CNbp-139" vertex="1">
          <mxGeometry y="156" width="490" height="8" as="geometry" />
        </mxCell>
        <mxCell id="pEVWOKsxLj1dPR-0CNbp-145" value="+ WebsiteBandwidthCalculator(v: Decimal, vU: TimeUnit, s: Decimal, sU: SizeUnit, f: int) " style="text;strokeColor=none;fillColor=none;align=left;verticalAlign=top;spacingLeft=4;spacingRight=4;overflow=hidden;rotatable=0;points=[[0,0.5],[1,0.5]];portConstraint=eastwest;" parent="pEVWOKsxLj1dPR-0CNbp-139" vertex="1">
          <mxGeometry y="164" width="490" height="26" as="geometry" />
        </mxCell>
        <mxCell id="pEVWOKsxLj1dPR-0CNbp-146" value="+ calculate(): TimeUnit[4]" style="text;strokeColor=none;fillColor=none;align=left;verticalAlign=top;spacingLeft=4;spacingRight=4;overflow=hidden;rotatable=0;points=[[0,0.5],[1,0.5]];portConstraint=eastwest;" parent="pEVWOKsxLj1dPR-0CNbp-139" vertex="1">
          <mxGeometry y="190" width="490" height="26" as="geometry" />
        </mxCell>
        <mxCell id="pEVWOKsxLj1dPR-0CNbp-148" value="HostingBandwidthConverter" style="swimlane;fontStyle=1;align=center;verticalAlign=top;childLayout=stackLayout;horizontal=1;startSize=26;horizontalStack=0;resizeParent=1;resizeParentMax=0;resizeLast=0;collapsible=1;marginBottom=0;strokeColor=#FFFFFF;" parent="WIyWlLk6GJQsqaUBKTNV-1" vertex="1">
          <mxGeometry x="-880" y="1310" width="490" height="190" as="geometry" />
        </mxCell>
        <mxCell id="pEVWOKsxLj1dPR-0CNbp-149" value="- monthlyUsage: Decimal" style="text;strokeColor=none;fillColor=none;align=left;verticalAlign=top;spacingLeft=4;spacingRight=4;overflow=hidden;rotatable=0;points=[[0,0.5],[1,0.5]];portConstraint=eastwest;" parent="pEVWOKsxLj1dPR-0CNbp-148" vertex="1">
          <mxGeometry y="26" width="490" height="26" as="geometry" />
        </mxCell>
        <mxCell id="pEVWOKsxLj1dPR-0CNbp-150" value="- usageUnit: SizeUnit" style="text;strokeColor=none;fillColor=none;align=left;verticalAlign=top;spacingLeft=4;spacingRight=4;overflow=hidden;rotatable=0;points=[[0,0.5],[1,0.5]];portConstraint=eastwest;" parent="pEVWOKsxLj1dPR-0CNbp-148" vertex="1">
          <mxGeometry y="52" width="490" height="26" as="geometry" />
        </mxCell>
        <mxCell id="pEVWOKsxLj1dPR-0CNbp-151" value="- bandwidth: Decimal" style="text;strokeColor=none;fillColor=none;align=left;verticalAlign=top;spacingLeft=4;spacingRight=4;overflow=hidden;rotatable=0;points=[[0,0.5],[1,0.5]];portConstraint=eastwest;" parent="pEVWOKsxLj1dPR-0CNbp-148" vertex="1">
          <mxGeometry y="78" width="490" height="26" as="geometry" />
        </mxCell>
        <mxCell id="pEVWOKsxLj1dPR-0CNbp-152" value="- bandwidthUnit: RateUnit" style="text;strokeColor=none;fillColor=none;align=left;verticalAlign=top;spacingLeft=4;spacingRight=4;overflow=hidden;rotatable=0;points=[[0,0.5],[1,0.5]];portConstraint=eastwest;" parent="pEVWOKsxLj1dPR-0CNbp-148" vertex="1">
          <mxGeometry y="104" width="490" height="26" as="geometry" />
        </mxCell>
        <mxCell id="pEVWOKsxLj1dPR-0CNbp-154" value="" style="line;strokeWidth=1;fillColor=none;align=left;verticalAlign=middle;spacingTop=-1;spacingLeft=3;spacingRight=3;rotatable=0;labelPosition=right;points=[];portConstraint=eastwest;" parent="pEVWOKsxLj1dPR-0CNbp-148" vertex="1">
          <mxGeometry y="130" width="490" height="8" as="geometry" />
        </mxCell>
        <mxCell id="pEVWOKsxLj1dPR-0CNbp-155" value="+ WebsiteBandwidthCalculator(v: Decimal, vU: TimeUnit, s: Decimal, sU: SizeUnit, f: int) " style="text;strokeColor=none;fillColor=none;align=left;verticalAlign=top;spacingLeft=4;spacingRight=4;overflow=hidden;rotatable=0;points=[[0,0.5],[1,0.5]];portConstraint=eastwest;" parent="pEVWOKsxLj1dPR-0CNbp-148" vertex="1">
          <mxGeometry y="138" width="490" height="26" as="geometry" />
        </mxCell>
        <mxCell id="pEVWOKsxLj1dPR-0CNbp-156" value="+ convert(): Unit" style="text;strokeColor=none;fillColor=none;align=left;verticalAlign=top;spacingLeft=4;spacingRight=4;overflow=hidden;rotatable=0;points=[[0,0.5],[1,0.5]];portConstraint=eastwest;" parent="pEVWOKsxLj1dPR-0CNbp-148" vertex="1">
          <mxGeometry y="164" width="490" height="26" as="geometry" />
        </mxCell>
        <mxCell id="pEVWOKsxLj1dPR-0CNbp-158" value="" style="endArrow=classic;html=1;entryX=0;entryY=0.5;entryDx=0;entryDy=0;exitX=1;exitY=0.5;exitDx=0;exitDy=0;" parent="WIyWlLk6GJQsqaUBKTNV-1" source="pEVWOKsxLj1dPR-0CNbp-141" target="pEVWOKsxLj1dPR-0CNbp-105" edge="1">
          <mxGeometry width="50" height="50" relative="1" as="geometry">
            <mxPoint x="-400" y="1100" as="sourcePoint" />
            <mxPoint x="-350" y="1050" as="targetPoint" />
          </mxGeometry>
        </mxCell>
        <mxCell id="pEVWOKsxLj1dPR-0CNbp-159" value="" style="endArrow=classic;html=1;entryX=0;entryY=0.5;entryDx=0;entryDy=0;exitX=1;exitY=0.5;exitDx=0;exitDy=0;" parent="WIyWlLk6GJQsqaUBKTNV-1" source="pEVWOKsxLj1dPR-0CNbp-150" target="pEVWOKsxLj1dPR-0CNbp-107" edge="1">
          <mxGeometry width="50" height="50" relative="1" as="geometry">
            <mxPoint x="-380" y="1144.9999999999998" as="sourcePoint" />
            <mxPoint x="-240" y="921" as="targetPoint" />
          </mxGeometry>
        </mxCell>
      </root>
    </mxGraphModel>
  </diagram>
</mxfile>
